<svg width="134" height="41" viewBox="0 0 134 41" fill="none" xmlns="http://www.w3.org/2000/svg">
<g clip-path="url(#clip0_1_186)">
<path d="M46.6766 18.778C46.16 18.7845 45.6604 18.6423 45.2848 18.3818C44.9091 18.1212 44.6873 17.7631 44.6666 17.384V1.39399C44.6678 1.20416 44.7214 1.01649 44.8243 0.842331C44.9271 0.668176 45.0771 0.51117 45.265 0.380829C45.4529 0.250488 45.675 0.149527 45.9176 0.0840636C46.1603 0.0186002 46.4185 -0.0100017 46.6766 -8.85303e-06C47.193 -0.00589516 47.6921 0.136532 48.0676 0.396924C48.443 0.657316 48.6651 1.01508 48.6866 1.39399V17.384C48.6481 17.7584 48.4207 18.1088 48.0489 18.3666C47.6772 18.6244 47.1879 18.7711 46.6766 18.778Z" fill="black"/>
<path d="M33.5 14.432C33.5578 14.8009 33.7911 15.1431 34.1589 15.3981C34.5266 15.6531 35.0051 15.8046 35.51 15.8259C36.0212 15.8191 36.5106 15.6724 36.8823 15.4145C37.2541 15.1567 37.4814 14.8064 37.52 14.432V7.05195C37.5188 6.86212 37.4652 6.67445 37.3624 6.50029C37.2595 6.32613 37.1096 6.16913 36.9216 6.03879C36.7337 5.90845 36.5117 5.80749 36.269 5.74202C36.0264 5.67656 35.7681 5.64796 35.51 5.65795C34.9936 5.65206 34.4945 5.79449 34.1191 6.05488C33.7436 6.31528 33.5215 6.67304 33.5 7.05195V14.432Z" fill="black"/>
<path d="M23.5616 15.662C23.2136 15.5462 22.9151 15.3628 22.6987 15.1316C22.4822 14.9004 22.3558 14.6301 22.3333 14.35V11.07C22.3333 10.6785 22.5451 10.3031 22.922 10.0263C23.299 9.7495 23.8102 9.59399 24.3433 9.59399C24.8764 9.59399 25.3876 9.7495 25.7646 10.0263C26.1415 10.3031 26.3533 10.6785 26.3533 11.07V14.35C26.3602 14.5418 26.3027 14.7319 26.1859 14.9035C26.069 15.0751 25.8964 15.223 25.6833 15.334C25.4195 15.5433 25.0737 15.6873 24.6936 15.746C24.3135 15.8048 23.918 15.7754 23.5616 15.662Z" fill="black"/>
<path d="M58.29 33.046V35.752H58.5133C59.4067 35.834 60.1883 35.916 61.0817 35.998C61.8219 36.0801 62.5747 36.0801 63.315 35.998C64.0422 35.9763 64.7593 35.8654 65.4367 35.67C66.257 35.4843 67.017 35.1773 67.67 34.768C68.2638 34.3899 68.7237 33.9115 69.01 33.374C69.4569 32.5019 69.4569 31.5402 69.01 30.668C68.7701 30.2245 68.3869 29.8305 67.8933 29.52C67.4041 29.1979 66.8356 28.9474 66.2183 28.782L63.4267 28.044C63.0889 27.9194 62.8148 27.7181 62.645 27.47C62.5329 27.2591 62.5329 27.025 62.645 26.814C62.6489 26.7715 62.6737 26.7314 62.7148 26.7013C62.7558 26.6711 62.8104 26.6529 62.8683 26.65C62.9956 26.5487 63.1469 26.4654 63.315 26.404L64.32 26.158C64.9103 26.076 65.5163 26.076 66.1067 26.158C66.7767 26.24 67.4467 26.322 68.2283 26.404H68.34V23.862L68.1167 23.78C67.4191 23.6581 66.7098 23.5759 65.995 23.534C65.0678 23.452 64.1305 23.452 63.2033 23.534C62.0402 23.6374 60.9288 23.9469 59.965 24.436C59.3049 24.7675 58.8292 25.2623 58.625 25.83C58.1783 26.6456 58.1783 27.5564 58.625 28.372C58.8263 28.7862 59.173 29.1539 59.63 29.438C59.9911 29.7017 60.4054 29.923 60.8583 30.094C61.4615 30.3343 62.0979 30.5268 62.7567 30.668C62.98 30.75 63.2033 30.75 63.4267 30.832L63.7617 30.914H63.8733C64.2083 31.0011 64.5133 31.1411 64.7667 31.324C64.9727 31.4211 65.1297 31.5651 65.2133 31.734V32.226C65.0891 32.4694 64.8518 32.6727 64.5433 32.8C64.2158 32.9666 63.8249 33.0527 63.4267 33.046C62.8734 33.1141 62.3123 33.1416 61.7517 33.128C61.0308 33.133 60.3138 33.0499 59.63 32.882C59.295 32.8 58.8483 32.8 58.5133 32.718L58.29 33.046Z" fill="black"/>
<path d="M48.6866 35.834H52.8183V23.944H48.6866V35.834Z" fill="black"/>
<path d="M103.068 24.764C101.786 24.1752 100.312 23.8495 98.7996 23.8207C97.2875 23.7919 95.7925 24.0609 94.47 24.6C93.1412 25.111 92.0249 25.8759 91.2388 26.814C90.4526 27.7521 90.0258 28.8286 90.0033 29.93C90.0222 30.862 90.3224 31.7794 90.8823 32.6159C91.4422 33.4525 92.2478 34.1875 93.2411 34.7679C94.2344 35.3483 95.3907 35.7596 96.6266 35.9723C97.8625 36.1851 99.1472 36.1938 100.388 35.998C102.033 35.7598 103.542 35.1628 104.717 34.2851C105.893 33.4073 106.68 32.2896 106.977 31.078C107.243 29.8599 107.014 28.6112 106.319 27.4881C105.624 26.365 104.493 25.4174 103.068 24.764ZM102.845 30.504C102.676 31.1097 102.268 31.6657 101.672 32.1029C101.077 32.5402 100.32 32.8396 99.495 32.964C98.8793 33.0761 98.2367 33.0827 97.6171 32.9832C96.9974 32.8836 96.4173 32.6806 95.9216 32.39C95.422 32.0951 95.0212 31.72 94.7502 31.2935C94.4791 30.867 94.345 30.4005 94.3583 29.93C94.3563 29.3615 94.5761 28.8046 94.9917 28.325C95.4072 27.8454 96.0012 27.4634 96.7033 27.224C97.3545 26.9545 98.0931 26.8198 98.8404 26.8342C99.5877 26.8486 100.316 27.0117 100.947 27.3059C101.663 27.6377 102.228 28.12 102.566 28.6904C102.905 29.2607 103.002 29.8926 102.845 30.504Z" fill="black"/>
<path d="M43.1033 32.472V35.67L42.7683 35.752C40.8846 36.1742 38.884 36.2307 36.9617 35.916C35.1548 35.5996 33.5435 34.8492 32.3833 33.784C31.258 32.665 30.6601 31.3072 30.6802 29.9162C30.7004 28.5253 31.3375 27.1771 32.495 26.076C33.28 25.374 34.273 24.813 35.3983 24.436C36.4944 24.0902 37.6679 23.8956 38.86 23.862C40.1878 23.7904 41.521 23.9302 42.7683 24.272H42.9917V27.47H42.88C41.6068 26.9905 40.1721 26.7912 38.7483 26.896C37.9474 26.9918 37.185 27.2158 36.515 27.552C35.8049 27.9564 35.3268 28.5415 35.175 29.192C34.9301 29.8127 34.9693 30.4752 35.2867 31.078C35.4909 31.6457 35.9666 32.1405 36.6267 32.472C37.5206 32.97 38.6361 33.204 39.7533 33.128C40.9182 33.0748 42.0571 32.8518 43.1033 32.472Z" fill="black"/>
<path d="M85.76 35.67V32.472H85.6483C84.6739 32.8251 83.6078 33.0208 82.5217 33.046C81.4044 33.122 80.2889 32.888 79.395 32.39C78.7349 32.0585 78.2592 31.5637 78.055 30.996C77.7957 30.385 77.7572 29.7351 77.9433 29.11C78.1404 28.4723 78.6099 27.8977 79.2833 27.47C79.8899 27.054 80.6867 26.8199 81.5167 26.814C82.9404 26.7092 84.3751 26.9085 85.6483 27.388H85.76V24.19H85.5367C84.2761 23.8879 82.9536 23.7491 81.6283 23.78C80.4347 23.8046 79.2589 23.9996 78.1667 24.354C77.0413 24.731 76.0483 25.292 75.2633 25.994C74.0801 27.0867 73.4267 28.4379 73.4065 29.8339C73.3863 31.2299 74.0004 32.591 75.1517 33.702C76.3118 34.7672 77.9231 35.5176 79.73 35.834C81.6468 36.1899 83.6627 36.1329 85.5367 35.67H85.76Z" fill="black"/>
<path d="M55.8333 14.432C55.8911 14.8009 56.1245 15.1431 56.4922 15.3981C56.8599 15.6531 57.3384 15.8046 57.8433 15.8259C58.3545 15.8191 58.8439 15.6724 59.2156 15.4145C59.5874 15.1567 59.8147 14.8064 59.8533 14.432V7.05195C59.8522 6.86212 59.7985 6.67445 59.6957 6.50029C59.5928 6.32613 59.4429 6.16913 59.2549 6.03879C59.067 5.90845 58.845 5.80749 58.6023 5.74202C58.3597 5.67656 58.1015 5.64796 57.8433 5.65795C57.3269 5.65206 56.8278 5.79449 56.4524 6.05488C56.0769 6.31528 55.8548 6.67304 55.8333 7.05195V14.432Z" fill="black"/>
<path d="M68.2283 15.662C67.8802 15.5462 67.5818 15.3628 67.3653 15.1316C67.1489 14.9004 67.0225 14.6301 67 14.35V11.07C67 10.6785 67.2118 10.3031 67.5887 10.0263C67.9657 9.7495 68.4769 9.59399 69.01 9.59399C69.5431 9.59399 70.0543 9.7495 70.4313 10.0263C70.8082 10.3031 71.02 10.6785 71.02 11.07V14.35C71.0269 14.5418 70.9694 14.7319 70.8526 14.9035C70.7357 15.0751 70.5631 15.223 70.35 15.334C70.0862 15.5433 69.7403 15.6873 69.3603 15.746C68.9802 15.8048 68.5847 15.7754 68.2283 15.662Z" fill="black"/>
<path d="M78.1666 14.432C78.2244 14.801 78.4578 15.1432 78.8255 15.3982C79.1932 15.6532 79.6717 15.8047 80.1766 15.826C80.6879 15.8192 81.1772 15.6725 81.5489 15.4146C81.9207 15.1568 82.1481 14.8065 82.1866 14.432V7.05205C82.1866 6.66059 81.9749 6.28516 81.5979 6.00836C81.221 5.73156 80.7097 5.57605 80.1766 5.57605C79.6435 5.57605 79.1323 5.73156 78.7553 6.00836C78.3784 6.28516 78.1666 6.66059 78.1666 7.05205V14.432Z" fill="black"/>
<path d="M91.3433 18.778C90.8267 18.7845 90.3271 18.6423 89.9515 18.3818C89.5758 18.1212 89.354 17.7631 89.3333 17.384V1.39399C89.3345 1.20416 89.3881 1.01649 89.491 0.842331C89.5938 0.668176 89.7438 0.51117 89.9317 0.380829C90.1196 0.250488 90.3416 0.149527 90.5843 0.0840636C90.8269 0.0186002 91.0852 -0.0100017 91.3433 -8.85303e-06C91.8597 -0.00589516 92.3588 0.136532 92.7342 0.396924C93.1097 0.657316 93.3318 1.01508 93.3533 1.39399V17.384C93.3147 17.7584 93.0874 18.1088 92.7156 18.3666C92.3439 18.6244 91.8545 18.7711 91.3433 18.778Z" fill="black"/>
<path d="M100.5 14.432C100.558 14.8009 100.791 15.1431 101.159 15.3981C101.527 15.6531 102.005 15.8046 102.51 15.8259C103.021 15.8191 103.511 15.6724 103.882 15.4145C104.254 15.1567 104.481 14.8064 104.52 14.432V7.05195C104.519 6.86212 104.465 6.67445 104.362 6.50029C104.26 6.32613 104.11 6.16913 103.922 6.03879C103.734 5.90845 103.512 5.80749 103.269 5.74202C103.026 5.67656 102.768 5.64796 102.51 5.65795C101.994 5.65206 101.495 5.79449 101.119 6.05488C100.744 6.31528 100.521 6.67304 100.5 7.05195V14.432Z" fill="black"/>
<path d="M112.783 15.662C112.435 15.5462 112.137 15.3628 111.92 15.1316C111.704 14.9004 111.578 14.6301 111.555 14.35V11.07C111.555 10.6785 111.767 10.3031 112.144 10.0263C112.521 9.7495 113.032 9.59399 113.565 9.59399C114.098 9.59399 114.609 9.7495 114.986 10.0263C115.363 10.3031 115.575 10.6785 115.575 11.07V14.35C115.582 14.5418 115.524 14.7319 115.408 14.9035C115.291 15.0751 115.118 15.223 114.905 15.334C114.641 15.5433 114.295 15.6873 113.915 15.746C113.535 15.8048 113.14 15.7754 112.783 15.662Z" fill="black"/>
</g>
<defs>
<clipPath id="clip0_1_186">
<rect width="134" height="41" fill="white"/>
</clipPath>
</defs>
</svg>
