<svg width="148" height="41" viewBox="0 0 148 41" fill="none" xmlns="http://www.w3.org/2000/svg">
<path d="M131.017 19.9834H128.297V30.0776H131.017V19.9834Z" fill="black"/>
<path d="M115.875 25.215C115.875 27.0436 116.495 28.3638 117.725 29.192C118.854 29.8792 120.219 30.1926 121.582 30.0776H125.967V28.3228H121.73C119.695 28.3228 118.816 27.6586 118.798 25.8628H126.004V24.0834H118.816C118.918 22.5008 119.862 21.7382 121.73 21.7382H126.004V19.9834H121.684C117.716 19.9834 115.875 21.6398 115.875 25.215Z" fill="black"/>
<path d="M109.982 27.7406L107.217 19.9834H104.146L101.741 27.7406L98.8825 19.9834H96.089L100.205 30.0776H103.369L105.672 22.5418L108.308 30.0776H111.49L115.31 19.9834H112.646L109.982 27.7406Z" fill="black"/>
<path d="M89.6695 19.9834L84.4525 30.0776H87.2275L88.3283 27.675H93.7025L94.8403 30.0776H97.7263L92.4353 19.9834H89.6695ZM89.1423 25.8792L90.9923 21.9924L92.8423 25.8792H89.1423Z" fill="black"/>
<path d="M81.3445 26.0268C81.3445 27.8062 80.7248 28.5524 78.5695 28.5524C76.4143 28.5524 75.7945 27.8062 75.7945 26.0268V19.9834H73.2045V26.0842C73.2045 27.3634 73.334 28.249 73.9075 28.7984C74.925 29.7824 76.4235 30.1842 78.5325 30.1842C80.6415 30.1842 82.1678 29.7824 83.1575 28.7984C83.7125 28.2654 83.8883 27.3798 83.8883 26.0842V19.9834H81.3445V26.0268Z" fill="black"/>
<path d="M68.4685 24.0752H62.678V19.9834H60.0788V30.0776H62.678V25.8628H68.4685V30.0776H71.0678V19.9834H68.4685V24.0752Z" fill="black"/>
<path d="M30.044 10.9552C30.044 10.9552 31.3205 10.701 31.8015 10.66C31.8015 10.66 35.0113 14.3582 33.4388 28.3064C33.4339 28.3638 33.3898 28.4127 33.3278 28.4294C33.3278 28.4294 33.2723 28.4458 33.2075 28.3802C32.1808 27.0682 27.3985 20.8198 26.4735 17.0232C26.1694 16.0132 26.1694 14.9501 26.4735 13.94C27.0048 12.4666 28.3536 11.3391 30.044 10.9552ZM19.203 20.09C18.981 17.466 22.0798 14.8502 22.0798 14.8502C25.9754 19.2506 29.2784 24.039 31.9218 29.1182C31.9528 29.1516 31.9528 29.1997 31.9218 29.233C31.8765 29.2583 31.819 29.2583 31.7738 29.233C30.2475 28.5606 23.7078 25.6004 20.9975 23.247C19.9497 22.448 19.304 21.312 19.203 20.09ZM30.7655 31.16L30.9135 31.2502C30.9135 31.2502 30.9413 31.3076 30.858 31.3732C29.7388 32.062 26.5475 34.071 25.1138 34.3908C23.0418 34.8336 21.0438 33.374 19.8598 31.5044L30.7655 31.16ZM16.9645 22.9108C16.9645 22.9108 26.2423 27.3224 31.043 30.2088C31.043 30.2088 31.0985 30.2744 31.043 30.3482C31.0211 30.3855 30.9792 30.4102 30.932 30.4138C29.23 30.4138 22.9215 30.4138 22.755 30.4138C22.0376 30.3795 21.3313 30.241 20.6645 30.0038C17.5258 28.8636 15.9116 25.7693 16.9645 22.9108ZM37.8695 31.2092C37.925 31.16 37.9897 31.16 37.9897 31.16L48.877 31.4716C46.3795 35.178 43.6045 34.358 43.6045 34.358C42.0783 33.9726 38.9148 32.0046 37.8695 31.3404C37.8431 31.2998 37.8431 31.2498 37.8695 31.2092ZM51.8 22.8862C52.3038 24.2555 52.2215 25.7412 51.5687 27.06C50.8721 28.4209 49.5996 29.4841 48.026 30.0202C47.4336 30.2272 46.8104 30.357 46.176 30.4056C46.0095 30.4056 39.5068 30.4056 37.7955 30.4056C37.7308 30.4056 37.6845 30.3318 37.6845 30.3318C37.6689 30.2797 37.6909 30.2244 37.74 30.1924C42.55 27.3142 51.8 22.8862 51.8 22.8862ZM49.5708 20.0818C49.4557 21.3058 48.801 22.4401 47.7485 23.2388C45.0567 25.5758 38.554 28.5196 36.9908 29.2084C36.9455 29.2337 36.888 29.2337 36.8428 29.2084C36.8093 29.1607 36.8093 29.1003 36.8428 29.0526C39.4932 23.9954 42.7992 19.2292 46.694 14.8502C46.694 14.8502 49.765 17.3676 49.5708 20.0818ZM42.3003 13.94C42.5866 14.9545 42.5897 16.0156 42.3095 17.0314C41.3475 20.8198 36.63 27.0272 35.5848 28.3802C35.5558 28.4314 35.4863 28.4531 35.4275 28.4294C35.3776 28.4125 35.3445 28.3702 35.3442 28.3228C33.7717 14.3582 37 10.66 37 10.66C37.8695 10.7748 38.702 10.9552 38.702 10.9552C40.4021 11.333 41.7622 12.4613 42.3003 13.94Z" fill="black"/>
</svg>
