<svg width="134" height="41" viewBox="0 0 134 41" fill="none" xmlns="http://www.w3.org/2000/svg">
<path d="M68.1725 3.41663C54.7725 3.41663 43.0475 4.44163 33.5 6.55996V23.165C33.165 26.445 36.6825 29.52 42.88 31.6383C48.575 33.5516 65.995 36.6266 68.1725 37.0366C70.1825 36.695 87.9375 33.4833 93.465 31.6383C99.6625 29.5883 103.012 26.445 102.845 23.165V6.55996C93.13 4.44163 81.405 3.41663 68.1725 3.41663ZM87.9375 6.62829C91.9575 6.62829 95.81 6.76496 99.6625 6.90163V23.165C99.9975 26.035 96.9825 28.7683 91.455 30.6133C86.5975 32.2533 72.1925 34.85 68.1725 35.6016C64.1525 34.85 49.58 32.185 44.89 30.6133C39.53 28.7683 36.515 26.035 36.6825 23.165V13.6666C51.925 7.92663 70.685 6.55996 87.9375 6.62829Z" fill="black"/>
<path d="M39.6974 14.4866V22.2082C39.6974 24.8049 42.7124 26.1032 48.7424 26.1032C51.9249 26.1716 55.1074 25.8299 57.7874 25.1466V14.4866H51.7574V23.7116C50.9199 23.9166 49.9149 24.0532 48.9099 23.9849C46.2299 23.9849 45.7274 22.9599 45.7274 22.2766V14.4866H39.6974Z" fill="black"/>
<path d="M69.01 14.2133C66.1625 14.145 63.315 14.4867 60.97 15.1017V31.0917H67V25.8983C67.8375 25.9667 68.8425 26.035 69.68 26.035C76.38 26.035 80.2325 23.575 80.2325 20.0217C80.065 16.4 76.2125 14.2133 69.01 14.2133ZM68.8425 24.0533C68.1725 24.0533 67.5025 23.985 66.8325 23.9167V16.4C67.5025 16.2633 68.1725 16.195 69.01 16.195C72.5275 16.195 74.035 17.3567 74.035 20.09C73.8675 22.755 72.1925 24.0533 68.8425 24.0533Z" fill="black"/>
<path d="M89.6124 14.2133C85.2574 14.2133 81.5724 15.6483 81.5724 17.4249C81.5724 18.7233 82.4099 19.6799 87.4349 20.9099C90.1149 21.5249 91.12 21.9349 91.12 22.7549C91.2875 23.5066 89.7799 24.1216 88.1049 24.1216C87.9374 24.1216 87.7699 24.1216 87.6024 24.1216C85.4249 24.0533 83.4149 23.7116 81.9074 23.0966V25.2833C83.9174 25.7616 86.2625 26.0349 88.6075 26.0349C93.13 26.1716 96.9824 24.8049 97.3174 22.9599C97.3174 22.8916 97.3174 22.8233 97.3174 22.7549C97.4849 21.3199 96.4799 20.2266 91.4549 19.0649C89.2774 18.5183 87.4349 18.1766 87.4349 17.2883C87.4349 16.3999 89.2774 16.1266 90.9524 16.1266C92.9624 16.1949 94.9724 16.5366 96.3124 17.1516V15.0333C94.3024 14.4183 91.9574 14.1449 89.6124 14.2133Z" fill="black"/>
</svg>
